<svg height="512pt" viewBox="0 0 512 512.0005" width="512pt" xmlns="http://www.w3.org/2000/svg"><g fill-rule="evenodd"><path d="m433.59375 165.832031-211.796875-155.832031-211.796875 155.832031 23.59375 32.1875 20-14.714843 168.203125-123.757813 168.203125 123.757813 20 14.714843zm0 0" fill="#858fa6"/><path d="m390 183.304688-168.203125-123.757813-168.203125 123.757813v186.695312h110.222656v-150c0-5.5 4.5-10 10-10h95.960938c5.5 0 10 4.5 10 10v150c9.429687-52.316406 55.191406-92.003906 110.222656-92.003906zm0 0" fill="#ffecd1"/><path d="m279.777344 220c0-5.5-4.5-10-10-10h-95.960938c-5.5 0-10 4.5-10 10v150h115.960938zm0 0" fill="#c58965"/><path d="m390 277.996094c-55.03125 0-100.792969 39.6875-110.222656 92.003906-1.171875 6.488281-1.78125 13.171875-1.78125 19.996094 0 61.859375 50.144531 112.003906 112.003906 112.003906 61.855469 0 112-50.144531 112-112.003906 0-61.855469-50.144531-112-112-112zm0 0" fill="#cbe557"/><path d="m415.859375 349.191406c7.808594-7.808594 20.46875-7.808594 28.28125 0 7.808594 7.808594 7.808594 20.472656 0 28.28125l-53.335937 53.332032c-7.808594 7.808593-20.46875 7.808593-28.28125 0l-26.664063-26.667969c-7.808594-7.808594-7.808594-20.472657 0-28.28125 7.808594-7.808594 20.472656-7.808594 28.28125 0l12.523437 12.527343zm0 0" fill="#f9f9f9"/></g><path d="m400 268.410156v-65.335937l4.074219 3c2.136719 1.574219 4.8125 2.230469 7.4375 1.828125s4.984375-1.832032 6.554687-3.972656l23.59375-32.1875c3.261719-4.449219 2.304688-10.699219-2.140625-13.964844l-211.796875-155.832032c-3.523437-2.59375-8.328125-2.59375-11.851562 0l-73.683594 54.214844c-4.449219 3.269532-5.402344 9.53125-2.128906 13.980469 3.273437 4.449219 9.535156 5.402344 13.980468 2.125l67.757813-49.851563 197.828125 145.554688-11.769531 16.058594-180.132813-132.535156c-3.523437-2.59375-8.328125-2.59375-11.851562 0l-180.132813 132.535156-11.769531-16.054688 65.632812-48.292968c4.449219-3.273438 5.402344-9.535157 2.128907-13.980469-3.273438-4.449219-9.53125-5.402344-13.980469-2.128907l-73.675781 54.207032c-4.441407 3.269531-5.398438 9.515625-2.136719 13.964844l23.589844 32.1875c1.570312 2.140624 3.929687 3.570312 6.554687 3.972656.503907.078125 1.007813.117187 1.511719.117187 2.121094 0 4.199219-.675781 5.925781-1.945312l4.074219-3v166.925781c0 5.523438 4.476562 10 10 10h214.820312c-.277343 3.316406-.417968 6.652344-.417968 10 0 67.269531 54.726562 122 122 122 67.273437 0 122.003906-54.730469 122.003906-122 0-63.90625-49.390625-116.488281-112-121.589844zm-226.183594 91.589844v-140h95.960938v140zm216.183594 132c-56.246094 0-102.003906-45.757812-102.003906-102 0-23.363281 8.101562-46.191406 22.8125-64.285156 3.484375-4.285156 2.835937-10.585938-1.449219-14.070313-4.285156-3.480469-10.582031-2.832031-14.066406 1.453125-1.9375 2.382813-3.773438 4.835938-5.515625 7.347656v-100.445312c0-11.027344-8.972656-20-20-20h-95.957032c-11.027343 0-20 8.972656-20 20v140h-90.226562v-171.640625l158.203125-116.398437 158.203125 116.398437v80.054687c-3.097656.25-6.1875.613282-9.242188 1.097657-5.457031.867187-9.175781 5.988281-8.3125 11.445312.863282 5.453125 5.988282 9.171875 11.441407 8.308594 5.3125-.839844 10.734375-1.269531 16.109375-1.269531 56.246094 0 102.003906 45.757812 102.003906 102 0 56.246094-45.757812 102.003906-102 102.003906zm0 0"/><path d="m249.777344 280h-.007813c-5.523437 0-9.996093 4.476562-9.996093 10s4.480468 10 10.003906 10c5.519531 0 10-4.476562 10-10s-4.480469-10-10-10zm0 0"/><path d="m115.902344 97.921875c2.085937 0 4.191406-.652344 5.992187-2l.003907-.003906c4.417968-3.316407 5.3125-9.582031 1.996093-14-3.3125-4.417969-9.582031-5.308594-14-1.996094s-5.3125 9.582031-2 14c1.964844 2.617187 4.964844 4 8.007813 4zm0 0"/><path d="m334.003906 303.003906c1.503906 0 3.03125-.339844 4.464844-1.058594 4.941406-2.46875 6.941406-8.476562 4.472656-13.414062-2.46875-4.941406-8.476562-6.941406-13.417968-4.472656h-.007813c-4.9375 2.472656-6.9375 8.476562-4.46875 13.417968 1.753906 3.503907 5.289063 5.527344 8.957031 5.527344zm0 0"/><path d="m429.996094 333.335938c-8.011719 0-15.542969 3.117187-21.210938 8.785156l-32.121094 32.121094-5.453124-5.457032c-5.667969-5.664062-13.199219-8.785156-21.210938-8.785156-8.015625 0-15.546875 3.121094-21.214844 8.785156-11.695312 11.695313-11.695312 30.726563 0 42.421875l26.667969 26.667969c5.667969 5.664062 13.199219 8.785156 21.210937 8.785156 8.015626 0 15.546876-3.121094 21.210938-8.785156l53.332031-53.332031c5.667969-5.667969 8.789063-13.199219 8.789063-21.210938 0-8.015625-3.121094-15.546875-8.789063-21.210937-5.664062-5.664063-13.195312-8.785156-21.210937-8.785156zm7.070312 37.066406-53.332031 53.332031c-1.886719 1.886719-4.398437 2.929687-7.070313 2.929687-2.667968 0-5.179687-1.042968-7.070312-2.929687l-26.664062-26.667969c-3.898438-3.894531-3.898438-10.238281 0-14.136718 1.949218-1.949219 4.507812-2.925782 7.070312-2.925782 2.558594 0 5.121094.976563 7.066406 2.925782l12.527344 12.523437c3.90625 3.90625 10.238281 3.90625 14.140625 0l39.195313-39.191406c1.886718-1.886719 4.398437-2.925781 7.066406-2.925781 2.671875 0 5.183594 1.039062 7.070312 2.925781 1.890625 1.890625 2.929688 4.398437 2.929688 7.070312s-1.039063 5.179688-2.929688 7.070313zm0 0"/></svg>