<svg height="511pt" viewBox="0 -23 511.99969 511" width="511pt" xmlns="http://www.w3.org/2000/svg"><g fill-rule="evenodd"><path d="m52.167969 161.457031 137.832031-101.410156 137.828125 101.410156 18.578125 13.664063 23.59375-32.183594-180-132.4375-180 132.4375 23.59375 32.183594zm0 0" fill="#ff6977"/><path d="m210 137.066406c0 11.046875-8.953125 20-20 20s-20-8.953125-20-20 8.953125-20 20-20 20 8.953125 20 20zm0 0" fill="#cee3ff"/><path d="m230 195.316406h-80v120h80zm0 0" fill="#c58965"/><path d="m150 195.316406h137.828125v120h40v-153.859375l-137.828125-101.410156-137.832031 101.410156v153.859375h40.003906v-120zm20-58.25c0-11.046875 8.953125-20 20-20s20 8.953125 20 20-8.953125 20-20 20-20-8.953125-20-20zm0 0" fill="#dca98a"/><path d="m92.171875 195.316406h57.828125v120h-57.828125zm0 0" fill="#efc9b4"/><path d="m230 195.316406h57.828125v120h-57.828125zm0 0" fill="#efc9b4"/><path d="m190 285.160156c27.527344 0 49.84375-22.316406 49.84375-49.84375h-29.84375c-11 0-20 9-20 20zm0 0" fill="#cbe557"/><path d="m239.84375 415.316406c0-27.53125-22.316406-49.84375-49.84375-49.84375v29.84375c0 11 9 20 20 20l9.742188.003906zm0 0" fill="#cbe557"/><path d="m190 365.472656c27.527344 0 49.84375 22.3125 49.84375 49.84375h212.3125c0-27.53125 22.316406-49.84375 49.84375-49.84375v-80.3125c-27.527344 0-49.84375-22.316406-49.84375-49.84375h-212.3125c0 27.527344-22.316406 49.84375-49.84375 49.84375zm0 0" fill="#e2f0a1"/><path d="m452.15625 235.316406c0 27.527344 22.316406 49.84375 49.84375 49.84375v-29.84375c0-11-9-20-20-20zm0 0" fill="#cbe557"/><path d="m502 365.472656c-27.527344 0-49.84375 22.3125-49.84375 49.84375l20.101562.003906 9.742188-.003906c11 0 20-9 20-20zm0 0" fill="#cbe557"/><path d="m482 415.316406-9.742188.003906c-12.648437 9.402344-20.105468 24.234376-20.105468 39.996094h29.847656c11 0 20-9 20-20v-40c0 11-9 20-20 20zm0 0" fill="#cbe557"/><path d="m452.15625 455.316406c0-15.761718 7.453125-30.59375 20.101562-40h-252.515624c12.648437 9.40625 20.101562 24.238282 20.101562 40zm0 0" fill="#e2f0a1"/><path d="m239.84375 455.316406c0-15.761718-7.453125-30.59375-20.101562-40h-9.742188c-11 0-20-9-20-20v40c0 11 9 20 20 20zm0 0" fill="#cbe557"/></g><path d="m190 167.066406c16.542969 0 30-13.457031 30-30 0-16.542968-13.457031-30-30-30s-30 13.457032-30 30c0 16.542969 13.457031 30 30 30zm0-40c5.515625 0 10 4.488282 10 10 0 5.515625-4.484375 10-10 10s-10-4.484375-10-10 4.484375-10 10-10zm0 0"/><path d="m353.15625 299.472656c3.902344 3.90625 10.234375 3.90625 14.140625 0s3.90625-10.238281 0-14.140625c-3.257813-3.261719-7.160156-5.496093-11.296875-6.714843v-3.304688c0-5.519531-4.480469-10-10-10-5.523438 0-10 4.480469-10 10v5.285156c-2.308594 1.214844-4.476562 2.792969-6.414062 4.730469-10.398438 10.398437-10.398438 27.316406 0 37.714844l18.6875 18.6875c2.597656 2.597656 2.597656 6.828125 0 9.429687-1.261719 1.257813-2.933594 1.953125-4.714844 1.953125s-3.457032-.695312-4.714844-1.953125c-3.90625-3.90625-10.234375-3.90625-14.140625 0-3.90625 3.902344-3.90625 10.234375 0 14.140625 3.199219 3.199219 7.070313 5.484375 11.296875 6.726563v3.289062c0 5.523438 4.476562 10 10 10 5.519531 0 10-4.476562 10-10v-5.273437c2.332031-1.234375 4.496094-2.820313 6.414062-4.742188 10.398438-10.394531 10.398438-27.3125 0-37.710937l-18.6875-18.6875c-2.601562-2.601563-2.601562-6.832032 0-9.429688 2.597657-2.597656 6.828126-2.597656 9.429688 0zm0 0"/><path d="m482 225.316406h-51.480469c-5.523437 0-10 4.476563-10 10 0 5.523438 4.476563 10 10 10h12.488281c4.222657 24.996094 23.992188 44.769532 48.992188 48.992188v62.015625c-25 4.222656-44.769531 23.992187-48.992188 48.992187h-194.015624c-4.222657-25-23.996094-44.769531-48.992188-48.992187v-62.015625c24.996094-4.222656 44.769531-23.992188 48.992188-48.992188h101.527343c5.523438 0 10-4.476562 10-10 0-5.523437-4.476562-10-10-10h-12.691406v-44.089844l2.652344 1.953126c2.136719 1.570312 4.8125 2.230468 7.4375 1.828124 2.625-.402343 4.980469-1.832031 6.550781-3.972656l23.59375-32.1875c3.261719-4.449218 2.304688-10.699218-2.136719-13.96875l-180-132.433594c-3.523437-2.59375-8.328125-2.59375-11.855469 0l-57.777343 42.511719c-4.445313 3.273438-5.398438 9.53125-2.125 13.980469 3.269531 4.449219 9.53125 5.402344 13.976562 2.128906l51.855469-38.152344 166.03125 122.160157-11.769531 16.058593-148.335938-109.140624c-3.523437-2.59375-8.328125-2.59375-11.855469 0l-148.332031 109.140624-11.773437-16.058593 49.746094-36.597657c4.445312-3.273437 5.398437-9.535156 2.125-13.980468-3.273438-4.449219-9.53125-5.402344-13.980469-2.128906l-57.78125 42.511718c-4.441407 3.269532-5.398438 9.519532-2.140625 13.96875l23.59375 32.1875c1.570312 2.140625 3.929687 3.570313 6.554687 3.972656.503907.078126 1.007813.117188 1.511719.117188 2.121094 0 4.199219-.675781 5.925781-1.945312l2.652344-1.949219v134.085937c0 5.523438 4.476563 10 10 10h127.828125v110c0 16.542969 13.457031 30 30 30h272c16.542969 0 30-13.457031 30-30v-180c0-16.542968-13.457031-30-30-30zm-18.574219 20h18.574219c5.515625 0 10 4.484375 10 10v18.574219c-13.949219-3.621094-24.953125-14.625-28.574219-28.574219zm28.574219 131.425782v18.574218c0 5.511719-4.484375 10-10 10h-18.574219c3.621094-13.949218 14.625-24.957031 28.574219-28.574218zm-250.257812 48.574218h208.511718c-3.566406 6.15625-6.027344 12.9375-7.234375 20h-194.039062c-1.207031-7.0625-3.671875-13.84375-7.238281-20zm-13.171876-20h-18.570312c-5.515625 0-10-4.488281-10-10v-18.574218c13.949219 3.617187 24.953125 14.625 28.570312 28.574218zm-28.570312-131.425781v-18.574219c0-5.515625 4.484375-10 10-10h18.574219c-3.621094 13.949219-14.625 24.953125-28.574219 28.574219zm-137.828125-107.378906 127.828125-94.050781 127.828125 94.050781v58.804687h-77.828125v-20h47.828125c5.519531 0 10-4.476562 10-10 0-5.523437-4.480469-10-10-10h-195.65625c-5.523437 0-10 4.476563-10 10 0 5.523438 4.476563 10 10 10h47.828125v20h-47.828125c-5.523437 0-10 4.476563-10 10 0 5.523438 4.476563 10 10 10h47.828125v20h-47.828125c-5.523437 0-10 4.476563-10 10 0 5.523438 4.476563 10 10 10h47.828125v20h-77.828125zm97.828125 138.804687v-100h60v20h-10c-16.542969 0-30 13.457032-30 30v50zm40 130v-11.722656c3.128906 1.113281 6.492188 1.722656 10 1.722656h6.195312c6.046876 5.289063 10.335938 12.300782 12.34375 20h-18.539062c-5.515625 0-10-4.484375-10-10zm282 10h-18.542969c2.011719-7.699218 6.300781-14.710937 12.347657-20h6.195312c3.503906 0 6.871094-.609375 10-1.722656v11.722656c0 5.515625-4.488281 10-10 10zm0 0"/><path d="m100.007812 86.71875c2.085938 0 4.191407-.652344 5.992188-2l.003906-.003906c4.417969-3.3125 5.3125-9.578125 2-13.996094-3.316406-4.417969-9.585937-5.3125-14.003906-2s-5.3125 9.582031-2 14c1.964844 2.621094 4.964844 4 8.007812 4zm0 0"/><path d="m390.523438 245.316406c5.523437 0 10-4.476562 10-10 0-5.523437-4.476563-10-10-10h-.007813c-5.523437 0-9.996094 4.476563-9.996094 10 0 5.523438 4.480469 10 10.003907 10zm0 0"/></svg>