<svg height="512pt" viewBox="0 0 512 512" width="512pt" xmlns="http://www.w3.org/2000/svg"><g fill-rule="evenodd"><path d="m182 190c0-77.320312 62.679688-140 140-140s140 62.679688 140 140-62.679688 140-140 140-140-62.679688-140-140zm-40 0c0 42.5 14.730469 81.558594 39.363281 112.351562 8.351563 10.441407 17.84375 19.933594 28.28125 28.285157 30.796875 24.632812 69.855469 39.363281 112.355469 39.363281 99.410156 0 180-80.589844 180-180s-80.589844-180-180-180-180 80.589844-180 180zm0 0" fill="#f9f9f9"/><path d="m462 190c0 77.320312-62.679688 140-140 140s-140-62.679688-140-140 62.679688-140 140-140 140 62.679688 140 140zm0 0" fill="#cee3ff"/><path d="m209.648438 330.636719c-10.441407-8.351563-19.933594-17.84375-28.285157-28.285157l-29.070312 29.070313 28.285156 28.285156zm0 0" fill="#e8e7e9"/><path d="m180.578125 359.707031-28.285156-28.285156c-7.777344-7.777344-20.503907-7.777344-28.28125 0l-108.179688 108.175781c-7.777343 7.777344-7.777343 20.507813 0 28.285156l28.285157 28.285157c7.777343 7.777343 20.507812 7.777343 28.285156 0l108.175781-108.179688c7.777344-7.777343 7.777344-20.503906 0-28.28125zm0 0" fill="#c58965"/><path d="m322 177.980469-44.214844 32.53125v-67.46875l44.214844-32.53125 44.214844 32.53125v67.46875zm0 0" fill="#ffecd1"/><path d="m277.785156 210.511719 44.214844-32.53125 44.214844 32.53125v67.464843h-88.429688zm0 0" fill="#ffecd1"/><path d="m366.214844 210.511719v-32.53125h55.785156v44.144531h-40zm0 0" fill="#ff6977"/><path d="m277.785156 177.980469v32.53125l-15.785156 11.613281h-40v-44.144531zm0 0" fill="#ff6977"/><path d="m262 222.125 15.785156-11.613281v67.464843l-55.785156.003907v-55.855469zm0 0" fill="#ffd89e"/><path d="m366.214844 277.976562v-67.464843l15.785156 11.613281h40v55.855469zm0 0" fill="#ffd89e"/><path d="m277.785156 277.976562h153.121094c-25.664062 31.734376-64.914062 52.023438-108.90625 52.023438s-83.242188-20.289062-108.90625-52.023438zm0 0" fill="#cbe557"/></g><path d="m322 0c-104.765625 0-190 85.234375-190 190 0 41.578125 13.4375 80.074219 36.179688 111.394531l-17.097657 17.09375c-3.980469-1.898437-8.375-2.902343-12.929687-2.902343-8.03125 0-15.5625 3.113281-21.214844 8.765624l-108.175781 108.175782c-5.648438 5.652344-8.761719 13.183594-8.761719 21.210937 0 8.03125 3.113281 15.566407 8.761719 21.214844l28.285156 28.285156c5.648437 5.648438 13.183594 8.761719 21.214844 8.761719 8.027343 0 15.5625-3.113281 21.210937-8.761719l108.175782-108.179687c9.21875-9.214844 11.167968-22.988282 5.855468-34.136719l17.101563-17.101563c31.320312 22.742188 69.816406 36.179688 111.394531 36.179688 104.765625 0 190-85.234375 190-190s-85.234375-190-190-190zm-148.492188 380.917969-108.175781 108.175781c-1.875 1.875-4.386719 2.90625-7.070312 2.90625-2.6875 0-5.199219-1.03125-7.070313-2.90625l-28.285156-28.28125c-1.875-1.875-2.90625-4.386719-2.90625-7.074219 0-2.683593 1.03125-5.195312 2.90625-7.066406l108.175781-108.179687c1.875-1.871094 4.382813-2.902344 7.070313-2.902344s5.199218 1.03125 7.070312 2.902344l28.285156 28.285156c3.898438 3.898437 3.898438 10.242187 0 14.140625zm7.070313-35.355469-14.140625-14.140625 14.394531-14.398437c4.464844 4.957031 9.183594 9.679687 14.140625 14.144531zm141.421875 14.4375c-93.738281 0-170-76.261719-170-170s76.261719-170 170-170 170 76.261719 170 170-76.261719 170-170 170zm0 0"/><path d="m322 40c-82.710938 0-150 67.289062-150 150 0 82.707031 67.289062 150 150 150s150-67.292969 150-150c0-82.710938-67.289062-150-150-150zm0 20c71.683594 0 130 58.316406 130 130 0 25.417969-7.339844 49.148438-20 69.203125v-81.222656c0-5.523438-4.480469-10-10-10h-45.785156v-5.171875c1.753906 1.246094 3.773437 1.851562 5.777344 1.851562 3.070312 0 6.101562-1.414062 8.0625-4.074218 3.273437-4.449219 2.320312-10.710938-2.128907-13.984376l-60-44.144531c-3.523437-2.59375-8.328125-2.59375-11.851562 0l-60 44.144531c-4.449219 3.273438-5.402344 9.535157-2.128907 13.984376 3.242188 4.402343 9.398438 5.371093 13.839844 2.21875v5.175781h-45.785156c-5.523438 0-10 4.476562-10 10v81.222656c-12.660156-20.054687-20-43.785156-20-69.203125 0-71.683594 58.316406-130 130-130zm10 207.976562v-35c0-5.519531-4.476562-10-10-10s-10 4.480469-10 10v35h-24.214844v-52.410156l34.214844-25.171875 34.214844 25.171875v52.410156zm-100 0v-35.851562h30c2.074219 0 4.09375-.652344 5.785156-1.851562v37.703124zm180-55.851562h-26.71875l-9.066406-6.671875v-17.476563h35.785156zm-55.785156-21.386719-24.214844-17.816406v-14.316406c0-5.523438-4.476562-10-10-10s-10 4.476562-10 10v14.316406l-24.214844 17.816406v-42.636719l34.214844-25.175781 34.214844 25.175781zm-88.429688 14.714844-9.066406 6.671875h-26.71875v-24.148438h35.785156zm108.429688 24.820313c1.691406 1.199218 3.707031 1.851562 5.785156 1.851562h30v35.851562h-35.785156zm-139.558594 57.703124h170.6875c-22.851562 19.933594-52.710938 32.023438-85.34375 32.023438s-62.492188-12.089844-85.34375-32.023438zm0 0"/></svg>